<?xml version="1.0" encoding="UTF-8"?>
<svg width="205px" height="60px" viewBox="0 0 205 60" version="1.1" xmlns="http://www.w3.org/2000/svg" xmlns:xlink="http://www.w3.org/1999/xlink">
    <!-- Generator: Sketch 49.1 (51147) - http://www.bohemiancoding.com/sketch -->
    <title>app-store</title>
    <desc>Created with Sketch.</desc>
    <defs></defs>
    <g id="Page-1" stroke="none" stroke-width="1" fill="none" fill-rule="evenodd">
        <g id="article-1280" transform="translate(-510.000000, -3658.000000)">
            <g id="SaveMe" transform="translate(0.000000, 3458.000000)">
                <g id="Title" transform="translate(510.000000, 82.000000)">
                    <g id="Buttons" transform="translate(0.000000, 118.000000)">
                        <g id="app-store">
                            <rect id="Rectangle-2" fill="#000000" x="0" y="0" width="204.224422" height="60" rx="6"></rect>
                            <path d="M35.7333271,20.3746212 C34.1838928,20.3746212 31.8450231,18.6378788 29.3268578,18.6909091 C26.0834823,18.7386364 23.048839,20.5973485 21.3870104,23.4875 C17.9509592,29.3791667 20.5119413,38.0310606 23.8008097,42.7931818 C25.4492579,45.1265152 27.3733396,47.730303 29.8888288,47.6375 C32.350797,47.5367424 33.271359,46.0837121 36.2417771,46.0837121 C39.1854347,46.0837121 40.0497996,47.6375 42.6188099,47.5791667 C45.2600735,47.5367424 46.9245781,45.2378788 48.5114772,42.8859848 C50.4141504,40.2132576 51.1795014,37.5776515 51.2089379,37.4450758 C51.1473887,37.4238636 46.0735935,35.5068182 46.0254245,29.7079545 C45.9799316,24.8689394 50.0234467,22.5117424 50.2107704,22.4030303 C47.9227456,19.0965909 44.3716242,18.6431818 43.1219077,18.6060606 C42.9158517,18.5848485 42.7071196,18.5742424 42.5037396,18.5742424 C39.7474057,18.5742424 37.1436067,20.3746212 35.7333271,20.3746212 Z" id="Mask" fill="#FFFFFF"></path>
                            <path d="M37.4593809,12.2530303 C36.239101,13.6689394 35.1499477,15.9863636 35.4309332,18.1659091 C37.5824793,18.3276515 39.7928986,17.0920455 41.1764176,15.4746212 C42.5010636,13.8333333 43.4082453,11.6034091 43.1566964,9.33636364 C41.2379668,9.41856061 38.8429,10.6488636 37.4593809,12.2530303 Z" id="Clip-11" fill="#FFFFFF"></path>
                            <path d="M71.1294717,27.3215909 L75.1408742,27.3215909 L81.6624138,47.3034091 L78.2210104,47.3034091 L76.3370696,41.4329545 L69.7834174,41.4329545 L67.9904623,47.3034091 L64.6400447,47.3034091 L71.1294717,27.3215909 Z M72.0286253,33.7541667 L70.3534165,38.9723485 L75.7697465,38.9723485 L74.059749,33.7541667 C73.8831296,33.2212121 73.545947,31.9643939 73.0455252,29.9890152 L72.983976,29.9890152 C72.7859481,30.8375 72.4701739,32.0943182 72.0286253,33.7541667 Z" id="Clip-14" fill="#FFFFFF"></path>
                            <path d="M87.4346587,35.1780303 C88.5131078,33.4598485 90.1481758,32.6007576 92.3425387,32.6007576 C94.0552122,32.6007576 95.4895763,33.2715909 96.6349267,34.6132576 C97.7829532,35.9602273 98.3556284,37.7287879 98.3556284,39.9215909 C98.3556284,42.3715909 97.6892914,44.307197 96.3512652,45.7284091 C95.1550698,46.9958333 93.6671847,47.6268939 91.8929619,47.6268939 C89.9795845,47.6268939 88.6040936,46.9454545 87.7638132,45.5825758 L87.70494,45.5825758 L87.70494,53.1738636 L84.4722688,53.1738636 L84.4722688,37.6386364 C84.4722688,36.0981061 84.432128,34.5151515 84.3518464,32.8924242 L87.193814,32.8924242 L87.3757856,35.1780303 L87.4346587,35.1780303 Z M88.6790231,44.0261364 C89.3266277,44.75 90.1722603,45.1079545 91.2078925,45.1079545 C92.4228203,45.1079545 93.3701428,44.6412879 94.0471841,43.7159091 C94.7242253,42.7852273 95.064084,41.5602273 95.064084,40.0382576 C95.064084,38.6356061 94.7483098,37.4795455 94.1087333,36.5700758 C93.4076076,35.6208333 92.4709893,35.1462121 91.2935262,35.1462121 C90.4960626,35.1462121 89.7735285,35.4113636 89.1285999,35.9310606 C88.4783191,36.4560606 88.0528268,37.142803 87.8547989,37.9939394 C87.755785,38.3890152 87.7076161,38.7151515 87.7076161,38.969697 L87.7076161,41.3719697 C87.7076161,42.4193182 88.0287423,43.3022727 88.6790231,44.0261364 Z" id="Clip-17" fill="#FFFFFF"></path>
                            <path d="M104.162662,35.1780303 C105.238435,33.4598485 106.873503,32.6007576 109.067866,32.6007576 C110.783216,32.6007576 112.212228,33.2715909 113.365606,34.6132576 C114.50828,35.9602273 115.080956,37.7287879 115.080956,39.9215909 C115.080956,42.3715909 114.414619,44.307197 113.076592,45.7284091 C111.880397,46.9958333 110.392512,47.6268939 108.618289,47.6268939 C106.702236,47.6268939 105.326745,46.9454545 104.491816,45.5825758 L104.430267,45.5825758 L104.430267,53.1738636 L101.200272,53.1738636 L101.200272,37.6386364 C101.200272,36.0981061 101.160131,34.5151515 101.07985,32.8924242 L103.921817,32.8924242 L104.101113,35.1780303 L104.162662,35.1780303 Z M105.401674,44.0261364 C106.049279,44.7473485 106.889559,45.1079545 107.930544,45.1079545 C109.150824,45.1079545 110.092794,44.6412879 110.769835,43.7159091 C111.452229,42.7852273 111.792087,41.5602273 111.792087,40.0382576 C111.792087,38.6356061 111.468285,37.4795455 110.831384,36.5700758 C110.132935,35.6208333 109.198993,35.1462121 108.018853,35.1462121 C107.224066,35.1462121 106.498856,35.4113636 105.851251,35.9310606 C105.20097,36.4560606 104.778154,37.142803 104.580126,37.9939394 C104.481112,38.3890152 104.430267,38.7151515 104.430267,38.969697 L104.430267,41.3719697 C104.430267,42.4193182 104.756746,43.3022727 105.401674,44.0261364 Z" id="Clip-20" fill="#FFFFFF"></path>
                            <path d="M123.489112,28.5996212 C122.252776,29.6496212 121.634608,30.9965909 121.634608,32.6405303 C121.634608,35.1541667 123.400802,37.0632576 126.927839,38.367803 C128.228401,38.8450758 129.154315,39.3594697 129.710934,39.9136364 C130.270229,40.467803 130.548538,41.1518939 130.548538,41.9606061 C130.548538,42.8700758 130.211356,43.6018939 129.531638,44.1454545 C128.851921,44.6890152 127.907275,44.9621212 126.689671,44.9621212 C124.993054,44.9621212 123.438267,44.5352273 122.019959,43.6867424 L121.267989,46.3541667 C122.587282,47.1867424 124.326717,47.5977273 126.494319,47.5977273 C128.849245,47.5977273 130.676989,47.0170455 131.988254,45.8477273 C133.187126,44.7818182 133.783886,43.3977273 133.783886,41.6981061 C133.783886,40.3166667 133.37445,39.1606061 132.558254,38.2378788 C131.736706,37.3045455 130.462905,36.4984848 128.728823,35.8037879 C127.310515,35.2549242 126.33108,34.7378788 125.793193,34.2632576 C125.175025,33.7515152 124.867279,33.0965909 124.867279,32.3064394 C124.867279,31.5958333 125.13756,30.9912879 125.675447,30.5007576 C126.312347,29.9439394 127.198121,29.6681818 128.335443,29.6681818 C129.775159,29.6681818 131.059664,29.9731061 132.196987,30.5882576 L133.002478,27.9765152 C131.790227,27.3454545 130.262201,27.0299242 128.426429,27.0299242 C126.371221,27.0299242 124.725448,27.5522727 123.489112,28.5996212 Z" id="Clip-23" fill="#FFFFFF"></path>
                            <path d="M137.728387,30.2541667 L137.728387,32.8897727 L135.606277,32.8897727 L135.606277,35.294697 L137.728387,35.294697 L137.728387,42.557197 C137.728387,44.3761364 138.089654,45.6700758 138.80416,46.4416667 C139.524018,47.2106061 140.522185,47.5950758 141.798662,47.5950758 C142.836971,47.5950758 143.677251,47.4757576 144.311476,47.2424242 L144.22049,44.8109848 C143.843166,44.9117424 143.364153,44.9621212 142.788802,44.9621212 C141.528381,44.9621212 140.899509,44.0738636 140.899509,42.2920455 L140.899509,35.2973485 L144.461334,35.2973485 L144.461334,32.8897727 L140.899509,32.8897727 L140.899509,29.3049242 L137.728387,30.2541667 Z" id="Clip-26" fill="#FFFFFF"></path>
                            <path d="M148.245273,34.7352273 C149.551186,33.3113636 151.312029,32.6007576 153.525124,32.6007576 C155.660614,32.6007576 157.378639,33.3007576 158.671172,34.7060606 C159.912861,36.0662879 160.528353,37.8242424 160.528353,39.9799242 C160.528353,42.1965909 159.891452,44.0128788 158.614975,45.4340909 C157.274273,46.8977273 155.502727,47.6268939 153.286955,47.6268939 C151.154141,47.6268939 149.454848,46.9242424 148.186399,45.5242424 C146.920627,44.1215909 146.289078,42.3530303 146.289078,40.2185606 C146.289078,37.9859848 146.942035,36.1590909 148.245273,34.7352273 Z M150.447664,43.5594697 C151.148789,44.7128788 152.122872,45.2829545 153.383293,45.2829545 C154.616953,45.2829545 155.585684,44.6996212 156.284134,43.5329545 C156.878217,42.5625 157.177935,41.4090909 157.177935,40.0806818 C157.177935,38.7549242 156.891598,37.6147727 156.310894,36.6628788 C155.633853,35.5147727 154.665122,34.9420455 153.410054,34.9420455 C152.112168,34.9420455 151.127381,35.5174242 150.447664,36.6628788 C149.86696,37.6174242 149.583299,38.7761364 149.583299,40.1469697 C149.583299,41.4727273 149.86696,42.6128788 150.447664,43.5594697 Z" id="Clip-29" fill="#FFFFFF"></path>
                            <path d="M167.890173,33.369697 C167.151582,33.9424242 166.613696,34.7060606 166.273837,35.6526515 L166.182851,35.6526515 L166.062429,32.8950758 L163.252574,32.8950758 C163.33018,34.2579545 163.372996,35.7719697 163.372996,37.4291667 L163.340884,47.3034091 L166.570879,47.3034091 L166.570879,39.7412879 C166.570879,38.5958333 166.84116,37.6492424 167.379047,36.8988636 C167.997215,36.0450758 168.877636,35.6208333 170.012282,35.6208333 C170.373549,35.6208333 170.710732,35.6526515 171.031858,35.7083333 L171.031858,32.6590909 C170.791014,32.6193182 170.520732,32.6007576 170.226367,32.6007576 C169.386086,32.6007576 168.607355,32.855303 167.890173,33.369697 Z" id="Clip-32" fill="#FFFFFF"></path>
                            <path d="M174.352839,34.8837121 C175.607908,33.3431818 177.304525,32.5715909 179.440015,32.5715909 C181.535364,32.5715909 183.122263,33.3431818 184.200712,34.8837121 C185.049021,36.1060606 185.479865,37.6200758 185.479865,39.417803 C185.479865,39.9931818 185.4424,40.4731061 185.362119,40.8681818 L175.672133,40.8681818 C175.706922,42.2920455 176.175231,43.3818182 177.077061,44.132197 C177.890581,44.8030303 178.947621,45.1397727 180.248183,45.1397727 C181.682547,45.1397727 182.991136,44.9117424 184.168599,44.4583333 L184.674373,46.680303 C183.298882,47.2742424 181.671843,47.5712121 179.798606,47.5712121 C177.54537,47.5712121 175.773823,46.9136364 174.489318,45.5984848 C173.202137,44.2859848 172.559884,42.5227273 172.559884,40.3087121 C172.559884,38.1371212 173.156644,36.3261364 174.352839,34.8837121 Z M176.624808,36.092803 C176.089597,36.7875 175.768471,37.6174242 175.672133,38.5852273 L182.399729,38.5852273 C182.421137,37.6386364 182.209729,36.8166667 181.773533,36.1272727 C181.214238,35.2337121 180.355225,34.7909091 179.196494,34.7909091 C178.139453,34.7909091 177.285793,35.2257576 176.624808,36.092803 Z" id="Clip-35" fill="#FFFFFF"></path>
                            <path d="M66.5560982,10.4818182 C67.4017308,10.3492424 68.3089125,10.2776515 69.2910237,10.2776515 C71.0277817,10.2776515 72.3336953,10.6541667 73.2167925,11.4018939 C74.2042559,12.2477273 74.6993255,13.4568182 74.6993255,15.0265152 C74.6993255,16.7950758 74.1641151,18.1261364 73.0963702,19.0223485 C72.1089069,19.8443182 70.7013033,20.2579545 68.8815877,20.2579545 C67.974406,20.2579545 67.2010268,20.2181818 66.5560982,20.1386364 L66.5560982,10.4818182 Z M68.1429973,18.9613636 C68.3383491,18.9931818 68.6969401,19.0037879 69.2187703,19.0037879 C70.431022,19.0037879 71.3703164,18.669697 72.0313013,18.0015152 C72.6896102,17.3306818 73.0241168,16.3522727 73.0241168,15.0715909 C73.0241168,13.9261364 72.7190468,13.0484848 72.1089069,12.4359848 C71.4934148,11.8234848 70.5996133,11.5185606 69.4221503,11.5185606 C68.9217285,11.5185606 68.4962362,11.5530303 68.1429973,11.6193182 L68.1429973,18.9613636 Z" id="Clip-38" fill="#FFFFFF"></path>
                            <path d="M77.5439692,13.9950758 C78.1862218,13.3003788 79.0505867,12.9477273 80.1370639,12.9477273 C81.1860765,12.9477273 82.031709,13.2924242 82.6686095,13.9818182 C83.2733973,14.65 83.5757912,15.5143939 83.5757912,16.5723485 C83.5757912,17.6621212 83.2626931,18.5503788 82.6364968,19.2530303 C81.978188,19.9715909 81.1084709,20.332197 80.0193176,20.332197 C78.9703051,20.332197 78.1353768,19.9848485 77.5145326,19.2954545 C76.8936885,18.6060606 76.5832664,17.7390152 76.5832664,16.6890152 C76.5832664,15.5912879 76.9017166,14.6924242 77.5439692,13.9950758 Z M78.6250943,18.3329545 C78.967629,18.8950758 79.4466424,19.1787879 80.0648105,19.1787879 C80.6722744,19.1787879 81.1459357,18.8897727 81.4884704,18.3143939 C81.7855122,17.8424242 81.9326951,17.2776515 81.9326951,16.6227273 C81.9326951,15.9704545 81.7881882,15.4109848 81.5045267,14.9443182 C81.1700201,14.3768939 80.6963589,14.0958333 80.0808668,14.0958333 C79.4439664,14.0958333 78.9569248,14.3768939 78.6250943,14.9443182 C78.3414328,15.4109848 78.199602,15.9810606 78.199602,16.6518939 C78.199602,17.3068182 78.3414328,17.8662879 78.6250943,18.3329545 Z" id="Clip-41" fill="#FFFFFF"></path>
                            <path d="M95.4815482,13.0935606 L93.9240857,13.0935606 L93.0570447,16.4 C92.8429605,17.2272727 92.6797213,18.0015152 92.5726792,18.7306818 L92.5298624,18.7306818 C92.3826795,17.980303 92.1900038,17.2060606 91.9571872,16.4 L90.9831041,13.0935606 L89.6905709,13.0935606 L88.676347,16.4715909 C88.3980376,17.3837121 88.2026857,18.1393939 88.0849394,18.7280303 L88.0555029,18.7280303 C87.9297284,18.0094697 87.7664892,17.2511364 87.5738134,16.4556818 L86.7656456,13.0909091 L85.1332537,13.0909091 L87.2339548,20.1704545 L88.7031075,20.1704545 L89.6905709,17.094697 C89.9340916,16.3496212 90.1240913,15.5886364 90.2632461,14.8090909 L90.2926826,14.8090909 C90.4398655,15.5674242 90.6298652,16.3284091 90.8653578,17.094697 L91.793948,20.1704545 L93.2470444,20.1704545 L95.4815482,13.0935606 L95.4815482,13.0909091 L95.4815482,13.0935606 Z" id="Clip-44" fill="#FFFFFF"></path>
                            <path d="M99.7899925,13.342803 C99.4260493,13.5655303 99.153092,13.8518939 98.9657683,14.1965909 L98.9229515,14.1965909 L98.848022,13.0882576 L97.4537987,13.0882576 C97.4912635,13.8200758 97.5126719,14.4935606 97.5126719,15.1140152 L97.5126719,20.167803 L99.102247,20.167803 L99.102247,15.9704545 C99.102247,15.5064394 99.2467538,15.1007576 99.5411196,14.7587121 C99.8328093,14.4140152 100.215485,14.2443182 100.68647,14.2443182 C101.647173,14.2443182 102.126186,14.8674242 102.126186,16.1162879 L102.126186,20.1704545 L103.715761,20.1704545 L103.715761,15.9280303 C103.715761,14.8912879 103.442804,14.1090909 102.891537,13.5840909 C102.452665,13.157197 101.898722,12.9424242 101.229709,12.9424242 C100.702526,12.9424242 100.220837,13.0776515 99.7899925,13.342803 Z" id="Clip-47" fill="#FFFFFF"></path>
                            <polygon id="Fill-49" fill="#FFFFFF" points="106.506884 20.1704545 108.093783 20.1704545 108.093783 9.84545455 106.506884 9.84545455"></polygon>
                            <path d="M111.409412,13.9950758 C112.051664,13.3003788 112.916029,12.9477273 114.002507,12.9477273 C115.051519,12.9477273 115.894476,13.2924242 116.534052,13.9818182 C117.141516,14.65 117.44391,15.5143939 117.44391,16.5723485 C117.44391,17.6621212 117.128136,18.5503788 116.501939,19.2530303 C115.846307,19.9715909 114.973914,20.332197 113.887436,20.332197 C112.835748,20.332197 111.998143,19.9848485 111.379975,19.2954545 C110.759131,18.6060606 110.448709,17.7390152 110.448709,16.6890152 C110.448709,15.5912879 110.764483,14.6924242 111.409412,13.9950758 Z M112.490537,18.3329545 C112.835748,18.8950758 113.314761,19.1787879 113.930253,19.1787879 C114.537717,19.1787879 115.014054,18.8897727 115.356589,18.3143939 C115.650955,17.8424242 115.795462,17.2776515 115.795462,16.6227273 C115.795462,15.9704545 115.653631,15.4109848 115.367293,14.9443182 C115.035463,14.3768939 114.561801,14.0958333 113.946309,14.0958333 C113.306733,14.0958333 112.822367,14.3768939 112.490537,14.9443182 C112.206875,15.4109848 112.067721,15.9810606 112.067721,16.6518939 C112.067721,17.3068182 112.206875,17.8662879 112.490537,18.3329545 Z" id="Clip-51" fill="#FFFFFF"></path>
                            <path d="M119.774751,13.5602273 C120.438412,13.1545455 121.257284,12.9477273 122.223339,12.9477273 C124.091224,12.9477273 125.027842,13.9234848 125.027842,15.8776515 L125.027842,18.4814394 C125.027842,19.1893939 125.062631,19.7541667 125.129532,20.1704545 L123.703196,20.1704545 L123.58545,19.3564394 L123.542633,19.3564394 C123.052916,20.0034091 122.359818,20.332197 121.455312,20.332197 C120.780947,20.332197 120.235032,20.1174242 119.82292,19.6878788 C119.453625,19.3034091 119.266302,18.8208333 119.266302,18.2481061 C119.266302,17.3837121 119.627569,16.7234848 120.363483,16.2674242 C121.091369,15.8113636 122.118973,15.5886364 123.440943,15.5965909 L123.440943,15.4666667 C123.440943,14.5333333 122.94855,14.0666667 121.961086,14.0666667 C121.254608,14.0666667 120.631088,14.2443182 120.095878,14.5916667 L119.774751,13.5602273 Z M121.160947,18.9030303 C121.364327,19.0886364 121.62658,19.1787879 121.934326,19.1787879 C122.282213,19.1787879 122.608691,19.0700758 122.903057,18.8526515 C123.202775,18.6325758 123.384746,18.3568182 123.457,18.0121212 C123.473056,17.9378788 123.481084,17.8450758 123.481084,17.7390152 L123.481084,16.6465909 C121.72827,16.6147727 120.855877,17.0920455 120.855877,18.0704545 C120.855877,18.4390152 120.954891,18.7174242 121.160947,18.9030303 Z" id="Clip-54" fill="#FFFFFF"></path>
                            <path d="M132.510085,9.84280303 L134.09966,9.84280303 L134.09966,18.2613636 C134.09966,18.9534091 134.115716,19.5871212 134.153181,20.1704545 L132.745577,20.1704545 L132.670648,19.0329545 L132.627831,19.0329545 C132.178254,19.8973485 131.407551,20.332197 130.331778,20.332197 C129.472765,20.332197 128.755583,19.9981061 128.185584,19.3272727 C127.618261,18.6564394 127.334599,17.7867424 127.334599,16.7181818 C127.334599,15.5727273 127.645021,14.6473485 128.260513,13.9393939 C128.857273,13.2765152 129.593188,12.9450758 130.465581,12.9450758 C131.426283,12.9450758 132.097973,13.2685606 132.477972,13.9075758 L132.510085,13.9075758 L132.510085,9.84280303 Z M129.40854,18.3647727 C129.751075,18.8314394 130.216708,19.0647727 130.797411,19.0647727 C131.316565,19.0647727 131.736706,18.8712121 132.05248,18.4814394 C132.35755,18.1208333 132.510085,17.6886364 132.510085,17.1848485 L132.510085,16.0022727 C132.510085,15.8034091 132.494028,15.6363636 132.467268,15.5090909 C132.376282,15.1325758 132.18093,14.8117424 131.88924,14.557197 C131.594875,14.3 131.23896,14.1700758 130.829524,14.1700758 C130.23544,14.1700758 129.769807,14.4034091 129.432624,14.8700758 C129.092766,15.3340909 128.921498,15.9333333 128.921498,16.6625 C128.921498,17.3598485 129.084738,17.9272727 129.40854,18.3647727 Z" id="Clip-57" fill="#FFFFFF"></path>
                            <path d="M141.702324,13.9950758 C142.341901,13.3003788 143.206266,12.9477273 144.298095,12.9477273 C145.347108,12.9477273 146.190064,13.2924242 146.824289,13.9818182 C147.431753,14.65 147.736823,15.5143939 147.736823,16.5723485 C147.736823,17.6621212 147.423724,18.5503788 146.794852,19.2530303 C146.139219,19.9715909 145.266826,20.332197 144.177673,20.332197 C143.131336,20.332197 142.296408,19.9848485 141.670212,19.2954545 C141.049368,18.6060606 140.738946,17.7390152 140.738946,16.6890152 C140.738946,15.5912879 141.060072,14.6924242 141.702324,13.9950758 Z M142.780774,18.3329545 C143.12866,18.8950758 143.604998,19.1787879 144.22049,19.1787879 C144.827954,19.1787879 145.306967,18.8897727 145.649502,18.3143939 C145.941191,17.8424242 146.09105,17.2776515 146.09105,16.6227273 C146.09105,15.9704545 145.946544,15.4109848 145.662882,14.9443182 C145.328375,14.3768939 144.85739,14.0958333 144.239222,14.0958333 C143.602322,14.0958333 143.11528,14.3768939 142.780774,14.9443182 C142.497112,15.4109848 142.357957,15.9810606 142.357957,16.6518939 C142.357957,17.3068182 142.499788,17.8662879 142.780774,18.3329545 Z" id="Clip-60" fill="#FFFFFF"></path>
                            <path d="M152.350337,13.342803 C151.98907,13.5655303 151.713436,13.8518939 151.526113,14.1965909 L151.485972,14.1965909 L151.408366,13.0882576 L150.016819,13.0882576 C150.051608,13.8200758 150.07034,14.4935606 150.07034,15.1140152 L150.07034,20.167803 L151.659915,20.167803 L151.659915,15.9704545 C151.659915,15.5064394 151.807098,15.1007576 152.101464,14.7587121 C152.39583,14.4140152 152.775829,14.2443182 153.246814,14.2443182 C154.210193,14.2443182 154.689207,14.8674242 154.689207,16.1162879 L154.689207,20.1704545 L156.276106,20.1704545 L156.276106,15.9280303 C156.276106,14.8912879 156.003148,14.1090909 155.451882,13.5840909 C155.010333,13.157197 154.453714,12.9424242 153.792729,12.9424242 C153.262871,12.9424242 152.781181,13.0776515 152.350337,13.342803 Z" id="Clip-63" fill="#FFFFFF"></path>
                            <path d="M163.656658,11.7943182 L163.656658,13.0909091 L162.612998,13.0909091 L162.612998,14.2734848 L163.656658,14.2734848 L163.656658,17.8397727 C163.656658,18.7333333 163.833277,19.369697 164.186516,19.7462121 C164.542431,20.1253788 165.029473,20.3162879 165.652993,20.3162879 C166.164119,20.3162879 166.573555,20.2579545 166.886653,20.1386364 L166.849189,18.9454545 C166.661865,18.9958333 166.423696,19.0223485 166.140035,19.0223485 C165.524543,19.0223485 165.216797,18.582197 165.216797,17.7098485 L165.216797,14.2734848 L166.964259,14.2734848 L166.961583,14.2734848 L166.961583,13.0909091 L165.214121,13.0909091 L165.214121,11.330303 L163.656658,11.7943182 Z" id="Clip-66" fill="#FFFFFF"></path>
                            <path d="M169.16665,9.84280303 L169.16665,20.167803 L170.753549,20.167803 L170.753549,15.9094697 C170.753549,15.6893939 170.780309,15.5011364 170.825802,15.3473485 C171.101436,14.6128788 171.604534,14.2443182 172.343124,14.2443182 C173.301151,14.2443182 173.777488,14.8753788 173.777488,16.1454545 L173.777488,20.1704545 L175.369739,20.1704545 L175.369739,15.9625 C175.369739,14.9151515 175.102134,14.1223485 174.564247,13.5867424 C174.130727,13.1598485 173.584812,12.9450758 172.929179,12.9450758 C172.000589,12.9450758 171.283407,13.3348485 170.785662,14.1117424 L170.753549,14.1117424 L170.753549,9.84280303 L169.16665,9.84280303 Z" id="Clip-69" fill="#FFFFFF"></path>
                            <path d="M178.57565,14.0693182 C179.188466,13.3136364 180.020718,12.9371212 181.069731,12.9371212 C182.097335,12.9371212 182.878742,13.3136364 183.405924,14.0693182 C183.834093,14.6712121 184.042825,15.4136364 184.042825,16.2965909 C184.042825,16.5776515 184.021416,16.8136364 183.983952,17.007197 L179.220579,17.007197 C179.239311,17.7098485 179.469451,18.2401515 179.911,18.6113636 C180.312408,18.942803 180.831562,19.1045455 181.471139,19.1045455 C182.17494,19.1045455 182.817193,18.9958333 183.397896,18.7704545 L183.646769,19.8628788 C182.969728,20.157197 182.172264,20.3030303 181.24635,20.3030303 C180.141141,20.3030303 179.268748,19.9795455 178.637199,19.3352273 C178.005651,18.6909091 177.692553,17.8212121 177.692553,16.7340909 C177.692553,15.6655303 177.984242,14.7799242 178.57565,14.0693182 Z M179.691564,14.6632576 C179.429311,15.0079545 179.271424,15.4136364 179.220579,15.8909091 L182.525503,15.8909091 C182.538883,15.4215909 182.434517,15.0185606 182.220433,14.6818182 C181.942124,14.2443182 181.52466,14.0242424 180.95466,14.0242424 C180.438182,14.0242424 180.01269,14.2363636 179.691564,14.6632576 Z" id="Clip-72" fill="#FFFFFF"></path>
                        </g>
                    </g>
                </g>
            </g>
        </g>
    </g>
</svg>