<?xml version="1.0" encoding="UTF-8"?>
<svg width="206px" height="60px" viewBox="0 0 206 60" version="1.1" xmlns="http://www.w3.org/2000/svg" xmlns:xlink="http://www.w3.org/1999/xlink">
    <!-- Generator: Sketch 49.1 (51147) - http://www.bohemiancoding.com/sketch -->
    <title>google-play</title>
    <desc>Created with Sketch.</desc>
    <defs></defs>
    <g id="Page-1" stroke="none" stroke-width="1" fill="none" fill-rule="evenodd">
        <g id="article-1280" transform="translate(-735.000000, -3658.000000)">
            <g id="SaveMe" transform="translate(0.000000, 3458.000000)">
                <g id="Title" transform="translate(510.000000, 82.000000)">
                    <g id="Buttons" transform="translate(0.000000, 118.000000)">
                        <g id="google-play" transform="translate(225.273927, 0.000000)">
                            <rect id="Rectangle" fill="#000000" x="0" y="0" width="205.726073" height="60" rx="6"></rect>
                            <g id="Group" transform="translate(61.885079, 9.833333)">
                                <path d="M9.92964824,5.20162879 C9.92964824,6.46109848 9.54801681,7.46602273 8.79800504,8.22170455 C7.93668411,9.11261364 6.81034135,9.5607197 5.43487808,9.5607197 C4.11771961,9.5607197 2.99402707,9.10465909 2.07175112,8.20579545 C1.14947516,7.29367424 0.688337187,6.17473485 0.688337187,4.8357197 C0.688337187,3.49405303 1.14947516,2.37776515 2.07175112,1.47359848 C2.99402707,0.566780303 4.11771961,0.110719697 5.43487808,0.110719697 C6.08948199,0.110719697 6.7149335,0.24594697 7.3112326,0.495189394 C7.90488149,0.744431818 8.38722121,1.08382576 8.73970024,1.50011364 L7.94198455,2.29556818 C7.33243435,1.58231061 6.50026582,1.22965909 5.43487808,1.22965909 C4.47284885,1.22965909 3.64068032,1.56109848 2.93572227,2.23193182 C2.23606465,2.90276515 1.88623584,3.76981061 1.88623584,4.8357197 C1.88623584,5.90162879 2.23606465,6.77662879 2.93572227,7.44746212 C3.64068032,8.11034091 4.47284885,8.44973485 5.43487808,8.44973485 C6.45256189,8.44973485 7.3112326,8.11034091 7.98703826,7.43950758 C8.43227492,6.99935606 8.68669588,6.38685606 8.75295133,5.60731061 L5.43487808,5.60731061 L5.43487808,4.51753788 L9.86074256,4.51753788 C9.91374693,4.75352273 9.92964824,4.98155303 9.92964824,5.20162879" id="Fill-78" fill="#FFFFFF"></path>
                                <path d="M9.92964824,5.20162879 C9.92964824,6.46109848 9.54801681,7.46602273 8.79800504,8.22170455 C7.93668411,9.11261364 6.81034135,9.5607197 5.43487808,9.5607197 C4.11771961,9.5607197 2.99402707,9.10465909 2.07175112,8.20579545 C1.14947516,7.29367424 0.688337187,6.17473485 0.688337187,4.8357197 C0.688337187,3.49405303 1.14947516,2.37776515 2.07175112,1.47359848 C2.99402707,0.566780303 4.11771961,0.110719697 5.43487808,0.110719697 C6.08948199,0.110719697 6.7149335,0.24594697 7.3112326,0.495189394 C7.90488149,0.744431818 8.38722121,1.08382576 8.73970024,1.50011364 L7.94198455,2.29556818 C7.33243435,1.58231061 6.50026582,1.22965909 5.43487808,1.22965909 C4.47284885,1.22965909 3.64068032,1.56109848 2.93572227,2.23193182 C2.23606465,2.90276515 1.88623584,3.76981061 1.88623584,4.8357197 C1.88623584,5.90162879 2.23606465,6.77662879 2.93572227,7.44746212 C3.64068032,8.11034091 4.47284885,8.44973485 5.43487808,8.44973485 C6.45256189,8.44973485 7.3112326,8.11034091 7.98703826,7.43950758 C8.43227492,6.99935606 8.68669588,6.38685606 8.75295133,5.60731061 L5.43487808,5.60731061 L5.43487808,4.51753788 L9.86074256,4.51753788 C9.91374693,4.75352273 9.92964824,4.98155303 9.92964824,5.20162879 Z" id="Stroke-80" stroke="#FFFFFF" stroke-width="0.833333333"></path>
                                <polygon id="Fill-82" fill="#FFFFFF" points="16.9511365 1.42878788 12.792944 1.42878788 12.792944 4.28977273 16.5430029 4.28977273 16.5430029 5.37954545 12.792944 5.37954545 12.792944 8.2405303 16.9511365 8.2405303 16.9511365 9.35151515 11.6162471 9.35151515 11.6162471 0.31780303 16.9511365 0.31780303"></polygon>
                                <polygon id="Stroke-84" stroke="#FFFFFF" stroke-width="0.833333333" points="16.9511365 1.42878788 12.792944 1.42878788 12.792944 4.28977273 16.5430029 4.28977273 16.5430029 5.37954545 12.792944 5.37954545 12.792944 8.2405303 16.9511365 8.2405303 16.9511365 9.35151515 11.6162471 9.35151515 11.6162471 0.31780303 16.9511365 0.31780303"></polygon>
                                <polygon id="Fill-86" fill="#FFFFFF" points="21.9073096 9.35231061 20.7306127 9.35231061 20.7306127 1.42958333 18.1811028 1.42958333 18.1811028 0.318598485 24.4594698 0.318598485 24.4594698 1.42958333 21.9073096 1.42958333"></polygon>
                                <polygon id="Stroke-88" stroke="#FFFFFF" stroke-width="0.833333333" points="21.9073096 9.35231061 20.7306127 9.35231061 20.7306127 1.42958333 18.1811028 1.42958333 18.1811028 0.318598485 24.4594698 0.318598485 24.4594698 1.42958333 21.9073096 1.42958333"></polygon>
                                <polygon id="Fill-90" fill="#FFFFFF" points="29.003004 9.35151515 30.1770507 9.35151515 30.1770507 0.31780303 29.003004 0.31780303"></polygon>
                                <polygon id="Stroke-92" stroke="#FFFFFF" stroke-width="0.833333333" points="29.003004 9.35151515 30.1770507 9.35151515 30.1770507 0.31780303 29.003004 0.31780303"></polygon>
                                <polygon id="Fill-93" fill="#FFFFFF" points="35.3887049 9.35231061 34.2226088 9.35231061 34.2226088 1.42958333 31.662498 1.42958333 31.662498 0.318598485 37.9488157 0.318598485 37.9488157 1.42958333 35.3887049 1.42958333"></polygon>
                                <polygon id="Stroke-94" stroke="#FFFFFF" stroke-width="0.833333333" points="35.3887049 9.35231061 34.2226088 9.35231061 34.2226088 1.42958333 31.662498 1.42958333 31.662498 0.318598485 37.9488157 0.318598485 37.9488157 1.42958333 35.3887049 1.42958333"></polygon>
                                <path d="M44.0032393,7.43367424 C44.6816952,8.10981061 45.5059131,8.44920455 46.489144,8.44920455 C47.4644243,8.44920455 48.2965929,8.10981061 48.9670981,7.43367424 C49.6429037,6.75488636 49.9847819,5.88784091 49.9847819,4.83784091 C49.9847819,3.78253788 49.6429037,2.91549242 48.9670981,2.23935606 C48.2965929,1.56056818 47.4644243,1.22117424 46.489144,1.22117424 C45.5059131,1.22117424 44.6816952,1.56056818 44.0032393,2.23935606 C43.3274336,2.91549242 42.9855555,3.78253788 42.9855555,4.83784091 C42.9855555,5.88784091 43.3274336,6.75488636 44.0032393,7.43367424 M49.8363697,8.18935606 C48.9352955,9.10412879 47.8195536,9.56018939 46.489144,9.56018939 C45.1507838,9.56018939 44.0350419,9.10412879 43.1339677,8.18935606 C42.2355437,7.27723485 41.7876568,6.16094697 41.7876568,4.83784091 C41.7876568,3.51208333 42.2355437,2.39314394 43.1339677,1.48102273 C44.0350419,0.56625 45.1507838,0.110189394 46.489144,0.110189394 C47.8116029,0.110189394 48.9273448,0.56625 49.8310692,1.48897727 C50.7374439,2.40640152 51.1826806,3.51738636 51.1826806,4.83784091 C51.1826806,6.16094697 50.7374439,7.27723485 49.8363697,8.18935606" id="Fill-95" fill="#FFFFFF"></path>
                                <path d="M44.0032393,7.43367424 C44.6816952,8.10981061 45.5059131,8.44920455 46.489144,8.44920455 C47.4644243,8.44920455 48.2965929,8.10981061 48.9670981,7.43367424 C49.6429037,6.75488636 49.9847819,5.88784091 49.9847819,4.83784091 C49.9847819,3.78253788 49.6429037,2.91549242 48.9670981,2.23935606 C48.2965929,1.56056818 47.4644243,1.22117424 46.489144,1.22117424 C45.5059131,1.22117424 44.6816952,1.56056818 44.0032393,2.23935606 C43.3274336,2.91549242 42.9855555,3.78253788 42.9855555,4.83784091 C42.9855555,5.88784091 43.3274336,6.75488636 44.0032393,7.43367424 Z M49.8363697,8.18935606 C48.9352955,9.10412879 47.8195536,9.56018939 46.489144,9.56018939 C45.1507838,9.56018939 44.0350419,9.10412879 43.1339677,8.18935606 C42.2355437,7.27723485 41.7876568,6.16094697 41.7876568,4.83784091 C41.7876568,3.51208333 42.2355437,2.39314394 43.1339677,1.48102273 C44.0350419,0.56625 45.1507838,0.110189394 46.489144,0.110189394 C47.8116029,0.110189394 48.9273448,0.56625 49.8310692,1.48897727 C50.7374439,2.40640152 51.1826806,3.51738636 51.1826806,4.83784091 C51.1826806,6.16094697 50.7374439,7.27723485 49.8363697,8.18935606 Z" id="Stroke-96" stroke="#FFFFFF" stroke-width="0.833333333"></path>
                                <polygon id="Fill-97" fill="#FFFFFF" points="52.8353567 9.35231061 52.8353567 0.318598485 54.2638243 0.318598485 58.7055901 7.34246212 58.7559442 7.34246212 58.7055901 5.60837121 58.7055901 0.318598485 59.882287 0.318598485 59.882287 9.35231061 58.6552359 9.35231061 54.0014527 1.98109848 53.9510985 1.98109848 54.0014527 3.72314394 54.0014527 9.35231061"></polygon>
                                <polygon id="Stroke-98" stroke="#FFFFFF" stroke-width="0.833333333" points="52.8353567 9.35231061 52.8353567 0.318598485 54.2638243 0.318598485 58.7055901 7.34246212 58.7559442 7.34246212 58.7055901 5.60837121 58.7055901 0.318598485 59.882287 0.318598485 59.882287 9.35231061 58.6552359 9.35231061 54.0014527 1.98109848 53.9510985 1.98109848 54.0014527 3.72314394 54.0014527 9.35231061"></polygon>
                            </g>
                            <path d="M162.49963,44.8011364 L165.348615,44.8011364 L165.348615,25.9674242 L162.49963,25.9674242 L162.49963,44.8011364 Z M188.11664,32.7526515 L184.848921,40.9193182 L184.753513,40.9193182 L181.374485,32.7526515 L178.310832,32.7526515 L183.386,44.1621212 L180.489312,50.5125 L183.460206,50.5125 L191.27835,32.7526515 L188.11664,32.7526515 Z M171.984761,42.6613636 C171.057185,42.6613636 169.761228,42.205303 169.761228,41.0651515 C169.761228,39.6068182 171.375211,39.05 172.774526,39.05 C174.025429,39.05 174.613778,39.3231061 175.37174,39.6837121 C175.149122,41.4257576 173.633197,42.6613636 171.984761,42.6613636 L171.984761,42.6613636 Z M172.32929,32.3390152 C170.275371,32.3390152 168.139295,33.2378788 167.262072,35.2238636 L169.78243,36.2712121 C170.325725,35.2238636 171.324857,34.8844697 172.379644,34.8844697 C173.855815,34.8844697 175.350538,35.7594697 175.37174,37.305303 L175.37174,37.5041667 C174.857598,37.2098485 173.757757,36.775 172.403496,36.775 C169.687022,36.775 166.920194,38.2545455 166.920194,41.0147727 C166.920194,43.5390152 169.143727,45.1617424 171.645533,45.1617424 C173.556341,45.1617424 174.613778,44.3106061 175.276332,43.3162879 L175.37174,43.3162879 L175.37174,44.7746212 L178.117366,44.7746212 L178.117366,37.5492424 C178.117366,34.2083333 175.594359,32.3390152 172.32929,32.3390152 L172.32929,32.3390152 Z M154.760993,35.0488636 L150.71411,35.0488636 L150.71411,28.5897727 L154.760993,28.5897727 C156.883818,28.5897727 158.094967,30.3291667 158.094967,31.8166667 C158.094967,33.275 156.883818,35.0488636 154.760993,35.0488636 L154.760993,35.0488636 Z M154.689437,25.9700758 L147.873076,25.9700758 L147.873076,44.8011364 L150.71411,44.8011364 L150.71411,37.6659091 L154.689437,37.6659091 C157.843197,37.6659091 160.938652,35.4068182 160.938652,31.8166667 C160.938652,28.2265152 157.837896,25.9700758 154.689437,25.9700758 L154.689437,25.9700758 Z M117.538677,42.6693182 C115.574866,42.6693182 113.93173,41.0439394 113.93173,38.8060606 C113.93173,36.5469697 115.574866,34.9003788 117.538677,34.9003788 C119.473337,34.9003788 120.999863,36.5469697 120.999863,38.8060606 C120.999863,41.0439394 119.473337,42.6693182 117.538677,42.6693182 L117.538677,42.6693182 Z M120.798446,33.805303 L120.703038,33.805303 C120.064335,33.0549242 118.842585,32.3761364 117.294857,32.3761364 C114.05099,32.3761364 111.082746,35.1920455 111.082746,38.8060606 C111.082746,42.3988636 114.05099,45.1935606 117.294857,45.1935606 C118.842585,45.1935606 120.064335,44.5094697 120.703038,43.7378788 L120.798446,43.7378788 L120.798446,44.6579545 C120.798446,47.1079545 119.473337,48.4231061 117.339911,48.4231061 C115.598718,48.4231061 114.517429,47.1795455 114.072192,46.1348485 L111.594238,47.1583333 C112.309797,48.8579545 114.199402,50.9473485 117.339911,50.9473485 C120.681836,50.9473485 123.499018,49.0011364 123.499018,44.2734848 L123.499018,32.7659091 L120.798446,32.7659091 L120.798446,33.805303 Z M125.46548,44.8011364 L128.314465,44.8011364 L128.314465,25.9674242 L125.46548,25.9674242 L125.46548,44.8011364 Z M132.50976,38.5859848 C132.435554,36.1147727 134.44972,34.85 135.894089,34.85 C137.025732,34.85 137.985111,35.4068182 138.305788,36.2075758 L132.50976,38.5859848 Z M141.348238,36.4515152 C140.812894,35.019697 139.161808,32.3761364 135.798681,32.3761364 C132.464707,32.3761364 129.687278,34.9719697 129.687278,38.7848485 C129.687278,42.375 132.435554,45.1935606 136.116707,45.1935606 C139.092903,45.1935606 140.812894,43.3984848 141.517852,42.3537879 L139.31022,40.8981061 C138.57346,41.9640152 137.569027,42.6693182 136.116707,42.6693182 C134.674989,42.6693182 133.641404,42.0170455 132.978849,40.7257576 L141.647713,37.1806818 L141.348238,36.4515152 Z M72.312703,34.3409091 L72.312703,37.0640152 L78.8878945,37.0640152 C78.6944286,38.5859848 78.1802862,39.7049242 77.3931714,40.4871212 C76.4337924,41.4257576 74.9390693,42.4731061 72.312703,42.4731061 C68.2631695,42.4731061 65.0935085,39.2409091 65.0935085,35.2397727 C65.0935085,31.2359848 68.2631695,28.0064394 72.312703,28.0064394 C74.4991331,28.0064394 76.0919142,28.8522727 77.2686111,29.95 L79.2085709,28.0276515 C77.5654356,26.4765152 75.3790055,25.2859848 72.312703,25.2859848 C66.7604958,25.2859848 62.0961116,29.7511364 62.0961116,35.2397727 C62.0961116,40.7257576 66.7604958,45.1935606 72.312703,45.1935606 C75.3100998,45.1935606 77.5654356,44.2231061 79.3357814,42.3988636 C81.1511809,40.6011364 81.7156774,38.0795455 81.7156774,36.0431818 C81.7156774,35.4068182 81.662673,34.8287879 81.5672651,34.3409091 L72.312703,34.3409091 Z M89.1945933,42.6693182 C87.2281313,42.6693182 85.5319916,41.0651515 85.5319916,38.7848485 C85.5319916,36.4753788 87.2281313,34.9003788 89.1945933,34.9003788 C91.158405,34.9003788 92.846594,36.4753788 92.846594,38.7848485 C92.846594,41.0651515 91.158405,42.6693182 89.1945933,42.6693182 L89.1945933,42.6693182 Z M89.1945933,32.3761364 C85.608848,32.3761364 82.6909577,35.0700758 82.6909577,38.7848485 C82.6909577,42.4731061 85.608848,45.1935606 89.1945933,45.1935606 C92.7776884,45.1935606 95.6955787,42.4731061 95.6955787,38.7848485 C95.6955787,35.0700758 92.7776884,32.3761364 89.1945933,32.3761364 L89.1945933,32.3761364 Z M103.381212,42.6693182 C101.42005,42.6693182 99.7292108,41.0651515 99.7292108,38.7848485 C99.7292108,36.4753788 101.42005,34.9003788 103.381212,34.9003788 C105.345023,34.9003788 107.043813,36.4753788 107.043813,38.7848485 C107.043813,41.0651515 105.345023,42.6693182 103.381212,42.6693182 L103.381212,42.6693182 Z M103.381212,32.3761364 C99.8034169,32.3761364 96.8802262,35.0700758 96.8802262,38.7848485 C96.8802262,42.4731061 99.8034169,45.1935606 103.381212,45.1935606 C106.969607,45.1935606 109.892798,42.4731061 109.892798,38.7848485 C109.892798,35.0700758 106.969607,32.3761364 103.381212,32.3761364 L103.381212,32.3761364 Z" id="Fill-99" fill="#FFFFFF"></path>
                            <g id="Group-2" transform="translate(13.380558, 10.000000)">
                                <path d="M2.08231367,0.959848485 C1.63442679,1.42386364 1.3747054,2.14507576 1.3747054,3.08106061 L1.3747054,3.08106061 L1.3747054,36.4 C1.3747054,37.3359848 1.63442679,38.057197 2.08231367,38.5185606 L2.08231367,38.5185606 L2.19362284,38.6219697 L21.0764279,19.9579545 L21.0764279,19.5125 L2.19362284,0.848484848 L2.08231367,0.959848485 Z" id="Fill-101" fill="#58C3E7"></path>
                                <path d="M21.0764279,19.5125 L21.0764279,19.9579545 L27.3627456,26.1837121 L27.5111578,26.0988636 L34.9662218,21.9121212 C37.094347,20.7162879 37.094347,18.7568182 34.9662218,17.5662879 L34.9662218,17.5662879 L27.5111578,13.3742424 L27.368046,13.2893939 L21.0764279,19.5125 Z" id="Fill-103" fill="#FCC805"></path>
                                <path d="M2.08231367,38.5185606 C2.78727173,39.2530303 3.94276689,39.3405303 5.2519747,38.6087121 L5.2519747,38.6087121 L27.5111578,26.0988636 L21.0764279,19.7352273 L2.08231367,38.5185606 Z" id="Fill-105" fill="#E8414B"></path>
                                <path d="M2.08231367,0.959848485 L21.0764279,19.7352273 L27.5111578,13.3742424 L5.2519747,0.864393939 C4.63712407,0.525 4.05937649,0.363257576 3.54258393,0.363257576 L3.54258393,0.363257576 C2.95953591,0.363257576 2.45599445,0.570075758 2.08231367,0.959848485" id="Fill-107" fill="#63B665"></path>
                            </g>
                        </g>
                    </g>
                </g>
            </g>
        </g>
    </g>
</svg>